<svg height="2903" node-id="1" sillyvg="true" template-height="2903" template-width="2903" version="1.1" viewBox="0 0 2903 2903" width="2903" xmlns="http://www.w3.org/2000/svg" xmlns:xlink="http://www.w3.org/1999/xlink">
	<defs node-id="29">
		<linearGradient gradientUnits="userSpaceOnUse" id="SVGID_1_" node-id="7" spreadMethod="pad" x1="1451.3394" x2="1451.3392" y1="2769.4502" y2="133.2292">
			<stop offset="0" stop-color="#d4f1e7">
			</stop>
			<stop offset="1" stop-color="#92ace5">
			</stop>
		</linearGradient>
	</defs>
	<g node-id="88">
		<path d="M 1451.34 2895.18 C 1256.42 2895.18 1067.33 2857.01 889.34 2781.72 C 803.78 2745.53 721.27 2700.74 644.08 2648.60 C 567.63 2596.95 495.73 2537.63 430.39 2472.29 C 365.05 2406.95 305.74 2335.05 254.08 2258.60 C 201.94 2181.41 157.15 2098.90 120.96 2013.35 C 45.67 1835.35 7.50 1646.26 7.50 1451.34 C 7.50 1256.42 45.67 1067.33 120.96 889.34 C 157.15 803.78 201.94 721.27 254.08 644.08 C 305.73 567.63 365.05 495.73 430.39 430.39 C 495.73 365.05 567.62 305.74 644.08 254.08 C 721.27 201.94 803.78 157.15 889.33 120.96 C 1067.33 45.67 1256.42 7.50 1451.34 7.50 C 1646.26 7.50 1835.35 45.67 2013.35 120.96 C 2098.90 157.15 2181.41 201.94 2258.60 254.08 C 2335.05 305.73 2406.95 365.05 2472.29 430.39 C 2537.63 495.73 2596.95 567.63 2648.60 644.08 C 2700.74 721.27 2745.53 803.78 2781.72 889.34 C 2857.01 1067.33 2895.18 1256.42 2895.18 1451.34 C 2895.18 1646.26 2857.01 1835.35 2781.72 2013.35 C 2745.53 2098.90 2700.74 2181.41 2648.60 2258.60 C 2596.95 2335.05 2537.63 2406.95 2472.29 2472.29 C 2406.95 2537.63 2335.05 2596.95 2258.60 2648.60 C 2181.41 2700.74 2098.90 2745.53 2013.35 2781.72 C 1835.35 2857.01 1646.26 2895.18 1451.34 2895.18 Z" fill="#fefffd" fill-rule="nonzero" group-id="1" node-id="40" stroke="none" target-height="2887.68" target-width="2887.68" target-x="7.5" target-y="7.5">
		</path>
		<g node-id="92">
			<path d="M 1451.34 15.00 C 1548.80 15.00 1646.20 24.82 1740.83 44.18 C 1833.04 63.05 1923.75 91.21 2010.42 127.87 C 2095.53 163.87 2177.61 208.42 2254.40 260.30 C 2330.46 311.68 2401.98 370.69 2466.99 435.70 C 2531.99 500.70 2591.00 572.22 2642.38 648.28 C 2694.26 725.07 2738.81 807.15 2774.81 892.26 C 2811.47 978.93 2839.63 1069.64 2858.50 1161.85 C 2877.86 1256.48 2887.68 1353.88 2887.68 1451.34 C 2887.68 1548.80 2877.86 1646.20 2858.50 1740.83 C 2839.63 1833.04 2811.47 1923.75 2774.81 2010.42 C 2738.81 2095.53 2694.26 2177.61 2642.38 2254.40 C 2591.00 2330.46 2531.99 2401.98 2466.99 2466.99 C 2401.98 2531.99 2330.46 2591.00 2254.40 2642.38 C 2177.61 2694.26 2095.53 2738.81 2010.42 2774.81 C 1923.75 2811.47 1833.04 2839.63 1740.83 2858.50 C 1646.20 2877.86 1548.80 2887.68 1451.34 2887.68 C 1353.88 2887.68 1256.48 2877.86 1161.85 2858.50 C 1069.64 2839.63 978.93 2811.47 892.26 2774.81 C 807.15 2738.81 725.07 2694.26 648.28 2642.38 C 572.22 2591.00 500.69 2531.99 435.69 2466.99 C 370.69 2401.99 311.68 2330.46 260.30 2254.40 C 208.42 2177.61 163.87 2095.53 127.87 2010.42 C 91.21 1923.75 63.05 1833.04 44.18 1740.83 C 24.82 1646.20 15.00 1548.80 15.00 1451.34 C 15.00 1353.88 24.82 1256.48 44.18 1161.85 C 63.05 1069.64 91.21 978.93 127.87 892.26 C 163.87 807.15 208.42 725.07 260.30 648.28 C 311.68 572.22 370.69 500.70 435.69 435.70 C 500.69 370.69 572.22 311.68 648.28 260.30 C 725.06 208.42 807.15 163.87 892.26 127.87 C 978.93 91.21 1069.64 63.05 1161.85 44.18 C 1256.48 24.82 1353.88 15.00 1451.34 15.00 M 1451.34 0.00 C 649.79 0.00 0.00 649.79 0.00 1451.34 C 0.00 2252.89 649.79 2902.68 1451.34 2902.68 C 2252.89 2902.68 2902.68 2252.89 2902.68 1451.34 C 2902.68 649.79 2252.89 0.00 1451.34 0.00 L 1451.34 0.00 Z" fill="#3c6f75" fill-rule="nonzero" group-id="1,5" node-id="44" stroke="none" target-height="2902.68" target-width="2902.68" target-x="0" target-y="0">
			</path>
		</g>
	</g>
	<g node-id="89">
		<path d="M 2769.45 1451.34 C 2769.45 1800.92 2630.58 2136.19 2383.38 2383.38 C 2136.19 2630.58 1800.92 2769.45 1451.34 2769.45 C 1101.76 2769.45 766.49 2630.58 519.30 2383.38 C 272.10 2136.19 133.23 1800.92 133.23 1451.34 C 133.23 1101.76 272.10 766.49 519.30 519.30 C 766.49 272.10 1101.76 133.23 1451.34 133.23 C 1800.92 133.23 2136.19 272.10 2383.38 519.30 C 2630.58 766.49 2769.45 1101.76 2769.45 1451.34 Z" fill="url(#SVGID_1_)" fill-rule="nonzero" group-id="2" node-id="50" stroke="none" target-height="2636.22" target-width="2636.22" target-x="133.23" target-y="133.23">
		</path>
	</g>
	<g node-id="90">
		<path d="M 2760.95 1488.19 C 2760.95 2130.06 2240.61 2650.39 1598.74 2650.39 C 956.87 2650.39 436.54 2130.06 436.54 1488.19 C 436.54 846.33 956.87 325.99 1598.74 325.99 C 2240.61 325.99 2760.95 846.33 2760.95 1488.19 Z" fill="#6f81b9" fill-opacity="0.3" fill-rule="nonzero" group-id="3" node-id="55" stroke="none" target-height="2324.4" target-width="2324.41" target-x="436.54" target-y="325.99">
		</path>
	</g>
	<g node-id="91">
		<path d="M 1055.03 1110.89 L 1846.98 1110.89 L 1846.98 1374.87 L 1055.03 1374.87 L 1055.03 1110.89 Z" fill="#ffcf65" fill-rule="nonzero" group-id="4" node-id="60" stroke="none" target-height="263.97998" target-width="791.94995" target-x="1055.03" target-y="1110.89">
		</path>
		<path d="M 703.06 1990.83 L 2198.96 1990.83 L 2198.96 2474.80 L 703.06 2474.80 L 703.06 1990.83 Z" fill="#ff4b4b" fill-rule="nonzero" group-id="4" node-id="62" stroke="none" target-height="483.9701" target-width="1495.8999" target-x="703.06" target-y="1990.83">
		</path>
		<path d="M 835.05 1638.85 L 2066.97 1638.85 L 2066.97 1902.84 L 835.05 1902.84 L 835.05 1638.85 Z" fill="#ffcf65" fill-rule="nonzero" group-id="4" node-id="64" stroke="none" target-height="263.99" target-width="1231.9199" target-x="835.05" target-y="1638.85">
		</path>
		<path d="M 835.05 1638.85 L 2066.97 1638.85 L 2066.97 1770.85 L 835.05 1770.85 L 835.05 1638.85 Z M 1055.03 1110.89 L 1846.98 1110.89 L 1846.98 1242.88 L 1055.03 1242.88 L 1055.03 1110.89 Z" fill="#ffb450" fill-rule="nonzero" group-id="4" node-id="66" stroke="none" target-height="659.95996" target-width="1231.9199" target-x="835.05" target-y="1110.89">
		</path>
		<path d="M 2299.39 1991.65 L 2066.97 1858.84 L 835.05 1858.84 L 602.63 1991.65 C 582.05 2003.41 590.40 2034.83 614.10 2034.83 L 2287.93 2034.83 C 2311.62 2034.83 2319.97 2003.41 2299.39 1991.65 Z M 1451.01 538.93 C 1313.28 804.05 1040.84 923.66 928.87 963.15 C 906.35 971.09 900.08 999.94 916.97 1016.83 L 1055.03 1154.89 L 1846.98 1154.89 L 1985.05 1016.83 C 2001.94 999.93 1995.67 971.09 1973.14 963.15 C 1861.17 923.66 1588.73 804.05 1451.01 538.93 Z" fill="#625d6b" fill-rule="nonzero" group-id="4" node-id="68" stroke="none" target-height="1495.8999" target-width="1737.9199" target-x="582.05" target-y="538.93">
		</path>
		<path d="M 1363.01 494.93 C 1362.99 543.53 1402.37 582.94 1450.97 582.96 C 1499.56 582.99 1538.98 543.61 1539.00 495.01 C 1539.00 494.99 1539.00 494.96 1539.00 494.93 C 1539.02 446.33 1499.64 406.92 1451.05 406.90 C 1402.45 406.87 1363.04 446.25 1363.01 494.85 C 1363.01 494.88 1363.01 494.90 1363.01 494.93 Z" fill="#ffcf65" fill-rule="nonzero" group-id="4" node-id="70" stroke="none" target-height="176.12" target-width="176.03003" target-x="1362.99" target-y="406.87">
		</path>
		<path d="M 1846.98 1330.88 L 1055.03 1330.88 L 700.04 1488.65 C 680.29 1497.43 675.49 1523.29 690.78 1538.57 L 835.05 1682.85 L 2066.97 1682.85 L 2211.25 1538.58 C 2226.53 1523.29 2221.73 1497.43 2201.98 1488.65 L 1846.98 1330.88 Z" fill="#504b5a" fill-rule="nonzero" group-id="4" node-id="72" stroke="none" target-height="351.96997" target-width="1551.04" target-x="675.49" target-y="1330.88">
		</path>
		<path d="M 2217.84 1506.87 C 2215.18 1499.25 2210.24 1492.32 2201.98 1488.65 L 1846.98 1330.88 L 1055.04 1330.88 L 700.04 1488.65 C 691.78 1492.32 686.84 1499.25 684.18 1506.87 L 2217.84 1506.87 L 2217.84 1506.87 L 2217.84 1506.87 Z" fill="#625d6b" fill-rule="nonzero" group-id="4" node-id="74" stroke="none" target-height="175.98999" target-width="1533.6602" target-x="684.18" target-y="1330.88">
		</path>
		<path d="M 1990.05 978.90 L 911.97 978.90 C 905.72 990.87 906.21 1006.06 916.97 1016.82 L 1055.03 1154.89 L 1846.98 1154.89 L 1985.05 1016.82 C 1995.81 1006.07 1996.30 990.87 1990.05 978.90 Z" fill="#504b5a" fill-rule="nonzero" group-id="4" node-id="76" stroke="none" target-height="175.98999" target-width="1090.5801" target-x="905.72" target-y="978.9">
		</path>
		<path d="M 703.06 2034.83 L 2198.96 2034.83 L 2198.96 2122.83 L 703.06 2122.83 L 703.06 2034.83 Z M 1583.00 1374.87 L 1319.02 1374.87 C 1294.71 1374.87 1275.02 1355.17 1275.02 1330.88 L 1275.02 1022.90 C 1275.02 998.60 1294.71 978.90 1319.02 978.90 L 1583.00 978.90 C 1607.30 978.90 1626.99 998.60 1627.00 1022.90 L 1627.00 1330.88 C 1626.99 1355.17 1607.30 1374.87 1583.00 1374.87 Z" fill="#ffb450" fill-rule="nonzero" group-id="4" node-id="78" stroke="none" target-height="1143.93" target-width="1495.8999" target-x="703.06" target-y="978.9">
		</path>
		<path d="M 1363.01 1066.90 L 1539.00 1066.90 L 1539.00 1286.88 L 1363.01 1286.88 L 1363.01 1066.90 Z" fill="#5091d7" fill-rule="nonzero" group-id="4" node-id="80" stroke="none" target-height="219.97998" target-width="175.98999" target-x="1363.01" target-y="1066.9">
		</path>
		<path d="M 1495.01 2210.82 L 1407.01 2210.82 C 1382.71 2210.82 1363.02 2230.52 1363.01 2254.82 L 1363.01 2474.80 L 1539.00 2474.80 L 1539.00 2254.82 C 1539.01 2230.52 1519.31 2210.82 1495.01 2210.82 C 1495.01 2210.82 1495.01 2210.82 1495.01 2210.82 Z M 1099.03 2210.82 L 1011.04 2210.82 C 986.74 2210.82 967.04 2230.52 967.04 2254.82 L 967.04 2474.80 L 1143.02 2474.80 L 1143.02 2254.82 C 1143.02 2230.52 1123.33 2210.82 1099.03 2210.82 C 1099.03 2210.82 1099.03 2210.82 1099.03 2210.82 Z M 1890.98 2210.82 L 1802.98 2210.82 C 1778.69 2210.82 1758.99 2230.52 1758.98 2254.82 L 1758.98 2474.80 L 1934.97 2474.80 L 1934.97 2254.82 C 1934.98 2230.52 1915.28 2210.82 1890.98 2210.82 L 1890.98 2210.82 Z" fill="#504b5a" fill-rule="nonzero" group-id="4" node-id="82" stroke="none" target-height="263.97998" target-width="967.94" target-x="967.04" target-y="2210.82">
		</path>
		<path d="M 1275.02 2474.80 L 263.08 2474.80 L 263.08 2342.81 C 263.09 2318.51 282.78 2298.81 307.08 2298.81 L 1231.02 2298.81 C 1255.32 2298.81 1275.02 2318.51 1275.02 2342.81 L 1275.02 2474.80 Z M 2638.93 2474.80 L 1626.99 2474.80 L 1626.99 2342.81 C 1626.99 2318.51 1646.69 2298.81 1670.99 2298.81 L 2594.93 2298.81 C 2619.23 2298.81 2638.93 2318.51 2638.93 2342.81 L 2638.93 2474.80 Z" fill="#ededee" fill-rule="nonzero" group-id="4" node-id="84" stroke="none" target-height="175.98999" target-width="2375.8499" target-x="263.08" target-y="2298.81">
		</path>
		<path d="M 2682.93 2518.80 L 219.09 2518.80 C 194.79 2518.43 175.39 2498.44 175.75 2474.14 C 176.11 2450.35 195.31 2431.16 219.09 2430.80 L 2682.93 2430.80 C 2707.23 2430.80 2726.93 2450.50 2726.93 2474.80 C 2726.93 2499.10 2707.23 2518.80 2682.93 2518.80 L 2682.93 2518.80 Z" fill="#dcdbde" fill-rule="nonzero" group-id="4" node-id="86" stroke="none" target-height="88" target-width="2551.54" target-x="175.39" target-y="2430.8">
		</path>
	</g>
</svg>
