<svg t="1686703139409" class="icon" viewBox="0 0 1024 1024" version="1.1" xmlns="http://www.w3.org/2000/svg" p-id="8715" width="200" height="200">
	<path d="M995.62666667 514.13333333c-0.10666667 265.70666667-215.89333333 485.44-489.28 481.49333334-261.54666667-3.73333333-473.92-217.28-473.6-482.56C32.96 247.57333333 249.81333333 31.89333333 515.2 32.53333333c264.96 0.64 480.32 215.78666667 480.42666667 481.6zM42.66666667 513.6c0.10666667 262.18666667 213.01333333 473.81333333 475.2 471.89333333 257.17333333-1.92 469.12-211.41333333 467.41333333-473.28-0.85333333-136.21333333-51.84-251.94666667-151.46666667-344.32C737.17333333 78.4 621.22666667 37.22666667 489.6 43.2c-236.69333333 10.88-445.33333333 205.86666667-446.93333333 470.4z" fill="#2c2c2c" p-id="8716">
	</path>
	<path d="M514.13333333 852.16c-186.45333333 0-337.49333333-151.36-337.81333333-337.92-0.32-186.88 152.21333333-338.45333333 338.34666667-338.13333333 185.81333333 0.32 338.77333333 151.25333333 337.49333333 340.37333333-1.38666667 186.02666667-152 335.14666667-338.02666667 335.68z m330.88-337.70666667c-0.32-184.10666667-148.90666667-331.30666667-331.2-331.2-183.14666667 0.10666667-329.17333333 148.8-330.56 328.64-1.38666667 181.01333333 147.94666667 340.90666667 345.81333334 332.8 169.38666667-7.04 314.88-145.81333333 315.94666666-330.24z" fill="#2c2c2c" p-id="8717">
	</path>
	<path d="M301.86666667 235.84c-3.52 0.21333333-6.18666667 0.85333333-8.64 0.42666667-3.41333333-0.53333333-6.82666667-1.92-11.09333334-3.2 3.41333333-0.96 6.18666667-1.81333333 9.6-2.77333334-4.05333333-5.44-8-10.66666667-12.48-16.64-5.54666667 10.24-2.98666667 22.50666667-11.41333333 31.25333334 0.42666667-2.45333333 0.53333333-5.01333333 1.38666667-7.25333334 1.92-5.01333333 0.21333333-8-4.26666667-10.56-7.46666667-4.26666667-14.50666667-8.96-21.86666667-13.22666666-1.70666667-0.96-3.84-1.17333333-5.76-1.92-0.96-0.42666667-2.34666667-1.28-2.56-2.02666667-0.10666667-0.74666667 1.06666667-2.66666667 1.6-2.66666667 2.34666667 0 5.22666667-0.10666667 6.93333334 1.06666667 5.97333333 4.16 11.41333333 8.96 18.02666666 14.18666667 2.45333333-8.21333333 4.8-15.78666667 7.25333334-23.89333334-4.90666667 0-6.93333333 6.82666667-12.05333334 2.24 1.81333333-2.88 3.73333333-5.97333333 5.86666667-9.28-0.53333333-0.74666667-1.38666667-2.13333333-2.45333333-3.73333333-4.8 3.41333333-6.50666667 7.78666667-5.86666667 13.22666667 0.10666667 0.74666667 0.74666667 1.6 0.53333333 2.13333333-1.06666667 2.13333333-2.24 4.26666667-3.62666666 6.29333333-0.32 0.42666667-2.24 0.21333333-2.24 0.21333334-0.32-2.02666667-1.17333333-4.26666667-0.53333334-5.97333334 1.81333333-4.90666667 3.62666667-9.92 6.61333334-14.08 2.45333333-3.41333333 2.88-5.76 0.21333333-8.85333333-1.17333333-1.38666667-2.02666667-2.88-3.62666667-5.22666667-0.96 2.98666667-1.81333333 5.33333333-2.56 7.57333334-0.85333333 2.77333333-2.66666667 3.73333333-5.54666666 2.98666666-7.57333333-1.81333333-7.36-1.6-2.66666667-8 2.24-3.09333333 3.84-6.72 6.18666667-10.88-4.90666667-6.18666667-10.02666667-12.48-15.14666667-18.98666666 2.66666667-3.09333333 7.04-2.24 9.38666667 2.45333333 2.24 4.37333333 4.69333333 8.64 7.04 13.01333333 2.13333333-0.96 3.94666667-2.02666667 5.86666666-2.34666666 0.96-0.21333333 2.24 0.96 3.41333334 1.49333333-0.64 0.85333333-1.06666667 2.24-1.81333334 2.56-3.84 1.28-3.41333333 3.52-1.81333333 6.29333333 1.70666667 3.09333333 3.30666667 6.18666667 5.22666667 10.02666667 1.28-2.45333333 2.24-3.94666667 3.09333333-5.54666667-3.62666667 12.16 5.33333333 16.42666667 12.90666667 22.18666667-0.10666667 0.96-0.32 2.77333333-0.64 4.48 4.05333333-8.74666667-0.74666667-30.61333333-7.57333334-34.77333333 2.34666667-0.85333333 4.37333333-2.24 5.44-1.70666667 2.02666667 0.96 4.8 2.88 5.12 4.69333333 1.49333333 8.53333333 2.24 17.17333333 3.30666667 26.66666667 2.45333333-0.32 5.33333333-0.53333333 8.21333333-1.06666667 6.72-1.06666667 13.76-0.53333333 19.84-4.69333333 0.74666667-0.53333333 2.02666667-0.85333333 2.98666667-0.74666667 1.38666667 0.10666667 2.77333333 0.74666667 4.05333333 1.17333334-0.53333333 1.17333333-0.74666667 2.45333333-1.49333333 3.52-3.41333333 5.22666667-4.69333333 5.65333333-10.66666667 3.84-1.28-0.32-2.66666667-0.53333333-3.94666666-0.53333334-5.54666667 0.32-11.09333333 0.85333333-16.64 1.28-4.48 0.42666667-6.61333333 4.8-3.84 8.32 7.25333333 8.53333333 14.4 16.96 22.72 26.98666667z m-30.29333334-29.54666667c-2.34666667 5.97333333 0 13.65333333-7.36 17.92 2.88 1.06666667 4.69333333 1.70666667 6.61333334 2.34666667 3.84-10.66666667 4.16-18.02666667 0.74666666-20.26666667zM784.32 205.33333333c5.54666667 0.42666667 11.2 0.32 16.53333333 1.38666667 4.05333333 0.74666667 5.22666667-0.32 5.12-3.52-6.4-0.85333333-12.48-1.70666667-18.66666666-2.56-0.42666667-0.10666667-0.96-0.32-1.17333334-0.64-2.66666667-5.44-8.10666667-5.01333333-12.8-6.08-1.06666667-0.21333333-2.24-0.21333333-2.98666666-0.85333333-3.41333333-2.88-6.08-2.77333333-7.89333334 1.70666666-0.10666667 0.21333333-0.74666667 0.21333333-1.6 0.53333334-0.21333333-0.85333333-0.74666667-1.70666667-0.53333333-2.45333334 0.64-2.98666667-0.32-5.12-2.88-6.93333333-1.06666667-0.85333333-1.38666667-2.66666667-2.13333333-4.05333333 0.32-0.21333333 0.64-0.53333333 1.06666666-0.74666667 1.92 0.64 3.84 1.28 6.29333334 2.02666667 1.70666667-5.54666667 3.41333333-10.98666667 5.12-16.53333334 4.90666667 4.05333333 4.58666667 4.58666667 1.49333333 8.96-1.70666667 2.34666667-1.92 5.76-2.45333333 8.74666667-0.10666667 0.53333333 1.6 2.02666667 2.45333333 2.02666667 0.96 0 2.45333333-0.96 2.88-1.92 2.77333333-6.08 5.22666667-12.37333333 7.89333333-18.56l0.96-1.92c5.01333333 2.66666667 5.12 5.01333333-0.32 13.01333333 4.16-1.70666667 7.36-2.98666667 9.49333334-3.84 0.64-2.77333333 1.06666667-4.58666667 1.49333333-6.4 1.6 0.42666667 3.09333333 0.85333333 5.22666667 1.49333333 0.32-0.96 0.96-2.56 1.49333333-4.16 3.62666667 2.24 5.22666667 6.61333333 2.77333333 9.38666667-2.13333333 2.45333333-3.09333333 4.90666667-3.62666666 7.89333333-0.85333333 5.12-3.52 9.17333333-8.53333334 11.41333334 2.88 3.41333333 6.08 3.30666667 15.14666667-1.17333334-1.06666667-0.85333333-2.13333333-1.81333333-3.94666667-3.30666666 6.18666667-1.92 13.22666667 3.84 16.32-4.48-1.38666667-1.06666667-3.52-2.34666667-5.01333333-4.05333334-0.74666667-0.85333333-0.53333333-2.56-0.85333333-3.94666666 1.28 0.10666667 2.77333333-0.10666667 3.73333333 0.53333333 2.98666667 1.70666667 6.18666667 3.52 8.74666667 5.76 2.45333333 2.24 1.81333333 4.26666667-1.49333334 5.65333333-6.93333333 3.09333333-13.76 6.50666667-20.69333333 10.88 1.17333333 0.32 2.24 0.53333333 3.41333333 0.74666667 4.16 0.74666667 6.72 3.73333333 6.93333334 7.36 0.21333333 2.66666667-1.92 5.54666667-3.2 8.32-0.42666667 0.96-1.38666667 1.92-2.34666667 2.45333333-0.96 0.53333333-2.66666667 1.17333333-3.30666667 0.74666667-3.52-2.56-6.61333333-5.65333333-10.24-8-2.34666667-1.49333333-5.22666667-2.13333333-7.89333333-3.2-0.10666667-0.64-0.10666667-1.17333333 0-1.70666667z m5.65333333-18.45333333c0.85333333-0.96 2.77333333-2.45333333 3.94666667-4.37333333 0.64-0.96 0.42666667-2.98666667-0.21333333-4.05333334-0.42666667-0.74666667-2.24-0.96-3.30666667-0.85333333-3.09333333 0.32-6.29333333 0.85333333-9.28 1.6-1.06666667 0.21333333-2.45333333 1.06666667-2.98666667 2.13333333-1.28 2.34666667-2.24 4.8-3.73333333 8.10666667 2.98666667 0.21333333 5.54666667 0.32 6.82666667 0.42666667 0.85333333-3.41333333 1.49333333-5.86666667 2.13333333-8.21333334 1.92 1.49333333 3.84 2.98666667 6.61333333 5.22666667zM301.12 891.09333333c-2.02666667-1.17333333-3.52-2.02666667-5.44-3.2 7.68-14.50666667 15.25333333-28.8 22.93333333-42.98666666 7.14666667 2.02666667 7.36 2.56 7.78666667 9.49333333 0.74666667 12.90666667 1.70666667 25.81333333 3.62666667 39.04 5.86666667-10.98666667 11.84-21.97333333 17.92-33.38666667 2.02666667 1.06666667 3.62666667 1.92 5.54666666 2.88-7.78666667 14.61333333-15.46666667 29.12-23.04 43.2-5.97333333-1.28-7.36-4.8-7.57333333-9.92-0.64-12.8-1.81333333-25.49333333-3.73333333-38.72-5.97333333 11.09333333-11.94666667 22.18666667-18.02666667 33.6zM100.37333333 384.42666667c0-6.08 3.30666667-7.89333333 8.10666667-8.85333334 11.2-2.34666667 22.18666667-5.12 33.28-7.78666666 1.49333333-0.32 2.98666667-0.96 4.48-2.24-11.84-4.16-23.68-8.21333333-35.73333333-12.48 0.85333333-2.02666667 1.49333333-3.84 2.34666666-5.86666667 15.57333333 5.33333333 30.93333333 10.66666667 46.08 15.89333333-0.96 7.25333333-1.49333333 7.68-8.74666666 9.28-12.37333333 2.77333333-24.85333333 5.65333333-37.44 9.6 11.73333333 4.05333333 23.57333333 8.21333333 35.73333333 12.37333334-0.64 2.02666667-1.17333333 3.73333333-1.81333333 6.08-15.57333333-5.44-30.93333333-10.66666667-46.29333334-16zM752.32 830.72c7.89333333 9.70666667 15.68 19.52 23.89333333 29.54666667-1.70666667 1.38666667-3.09333333 2.66666667-4.8 4.05333333-10.34666667-12.8-20.58666667-25.38666667-30.82666666-37.97333333 4.26666667-5.54666667 5.01333333-5.76 11.2-3.62666667 11.52 3.94666667 23.04 7.89333333 34.45333333 11.84 0.96 0.32 1.92 0.53333333 4.16 1.06666667-8.64-10.77333333-16.53333333-20.48-24.64-30.50666667 1.6-1.38666667 2.98666667-2.56 4.8-4.05333333 10.34666667 12.8 20.58666667 25.49333333 30.82666667 38.08-2.88 4.37333333-6.18666667 5.22666667-11.2 3.30666666-10.98666667-4.16-22.18666667-7.57333333-33.28-11.30666666l-4.16-1.28c-0.10666667 0.42666667-0.32 0.64-0.42666667 0.85333333zM915.84 605.01333333c3.52-3.94666667 7.57333333-3.41333333 11.84-2.56 4.16 0.85333333 8.42666667 1.28 12.69333333 2.02666667-0.32 6.82666667-0.85333333 7.25333333-8.10666666 5.86666667-0.42666667-0.10666667-0.85333333-0.10666667-1.28-0.21333334-13.65333333-3.41333333-13.54666667-0.53333333-16.53333334 10.56-0.85333333 3.2-1.70666667 6.4-2.66666666 10.24 5.12 1.38666667 10.13333333 2.77333333 15.14666666 4.16 5.65333333 1.49333333 5.65333333 1.49333333 3.2 7.78666667-15.46666667-4.16-31.04-8.32-47.25333333-12.58666667 0.64-2.77333333 1.28-5.33333333 1.92-7.78666666 1.6-5.97333333 3.2-11.84 5.01333333-17.70666667 1.81333333-5.54666667 5.33333333-9.49333333 11.52-9.6 5.97333333-0.10666667 10.77333333 2.34666667 13.33333334 8.10666667 0.21333333 0.32 0.53333333 0.74666667 1.17333333 1.70666666z m-4.8 6.61333334c0-5.76-2.56-8.42666667-7.57333333-9.38666667-4.16-0.74666667-6.93333333 1.17333333-8.42666667 5.01333333-0.74666667 1.81333333-1.17333333 3.73333333-1.70666667 5.54666667-3.73333333 13.44-3.73333333 13.44 10.24 16 0.32 0.10666667 0.64 0.32 0.85333334 0.21333333 0.85333333-0.42666667 2.13333333-0.85333333 2.34666666-1.49333333 1.6-5.65333333 3.09333333-11.41333333 4.26666667-15.89333333zM132.37333333 469.54666667c-0.85333333 9.6-1.28 18.77333333-2.56 27.84-0.64 4.69333333-3.41333333 8.74666667-8.64 10.02666666-6.50666667 1.6-10.56 0-16.32-6.50666666-3.09333333 4.58666667-7.78666667 4.48-12.69333333 4.48-3.94666667-0.10666667-7.78666667 0.42666667-12.16 0.74666666 0.10666667-1.81333333 0.32-4.37333333 0.64-7.46666666 4.69333333 0 9.17333333-0.10666667 13.65333333 0 4.48 0.10666667 7.36-1.92 7.89333334-6.29333334 0.64-5.65333333 0.96-11.30666667 1.38666666-17.70666666-7.04-0.64-13.65333333-1.17333333-20.58666666-1.81333334v-6.50666666c16.10666667 0.96 32.21333333 2.02666667 49.38666666 3.2z m-6.61333333 10.02666666c0.96-3.30666667-0.96-4.05333333-3.84-4.05333333-3.09333333-0.10666667-6.29333333-0.32-9.38666667-0.64-2.13333333-0.21333333-3.52 0.32-3.62666666 2.66666667-0.32 4.90666667-0.85333333 9.92-0.85333334 14.82666666 0 5.65333333 2.88 8.42666667 8.21333334 8.64 4.90666667 0.21333333 7.78666667-2.24 8.53333333-7.78666666 0.53333333-4.48 0.64-9.06666667 0.96-13.65333334zM288 854.50666667c3.2 5.54666667-0.64 9.28-3.09333333 13.44-1.81333333 3.09333333-3.41333333 6.4-5.44 10.02666666-1.38666667-0.96-3.52-2.45333333-6.08-4.26666666 2.45333333-3.84 4.8-7.46666667 7.04-11.2 2.98666667-4.90666667 2.66666667-7.68-1.81333334-11.30666667-4.26666667-3.30666667-8.64-6.4-13.54666666-10.02666667-3.2 4.26666667-6.18666667 8.42666667-9.17333334 12.48-3.62666667 4.90666667-3.62666667 4.90666667-8.64 0.53333334 9.6-13.22666667 19.2-26.45333333 29.12-40.10666667 7.57333333 5.97333333 15.04 11.52 22.18666667 17.38666667 4.37333333 3.52 5.54666667 8.21333333 3.30666667 13.33333333-2.24 5.22666667-5.86666667 9.06666667-12.16 9.06666667-0.42666667 0.21333333-0.85333333 0.42666667-1.70666667 0.64z m-20.05333333-17.28c6.18666667 3.94666667 11.84 7.78666667 17.92 11.09333333 4.05333333 2.13333333 6.72-1.06666667 8.74666666-4.16 1.92-2.88 2.34666667-6.29333333-0.32-8.64-5.01333333-4.37333333-10.45333333-8.21333333-15.89333333-12.48-3.62666667 4.90666667-6.72 9.17333333-10.45333333 14.18666667zM87.78666667 429.76c0.10666667-17.81333333 12.05333333-27.73333333 29.97333333-24.32 21.33333333 4.05333333 28.37333333 21.54666667 17.38666667 39.57333333-3.73333333 6.08-10.02666667 8.42666667-16.96 8.74666667-9.49333333 0.42666667-17.70666667-2.56-24.42666667-9.28-4.16-4.16-6.4-9.38666667-5.97333333-14.72z m28.26666666 17.92c7.14666667-0.74666667 12.8-3.09333333 15.89333334-9.38666667 2.98666667-5.97333333 3.41333333-12.37333333-0.85333334-17.92-5.44-6.93333333-13.22666667-9.17333333-21.76-8.64-8.53333333 0.42666667-13.54666667 5.12-15.25333333 13.33333334-1.70666667 8 0.96 14.18666667 8.53333333 18.02666666 4.26666667 2.02666667 8.96 2.98666667 13.44 4.58666667zM153.17333333 723.73333333c1.17333333 1.70666667 2.13333333 3.09333333 3.09333334 4.48-7.04 9.6-5.22666667 19.73333333 4.26666666 24.64 2.88 1.49333333 5.54666667 1.70666667 8.42666667-0.42666666 2.77333333-2.13333333 3.73333333-4.69333333 2.66666667-7.89333334-1.6-5.12-3.52-10.24-5.01333334-15.36-2.13333333-7.36-1.06666667-11.41333333 3.52-14.50666666 5.76-4.05333333 12.05333333-4.16 17.49333334 0.10666666 5.54666667 4.37333333 8.74666667 10.24 9.49333333 17.28 0.53333333 5.76-2.24 9.70666667-7.04 12.8-1.06666667-1.6-2.02666667-3.09333333-2.98666667-4.48 5.12-8.85333333 4.48-14.61333333-2.24-20.58666666-2.98666667-2.66666667-6.29333333-2.66666667-9.6-0.74666667-3.30666667 1.81333333-3.30666667 4.8-2.34666666 7.89333333 1.70666667 5.44 3.84 10.77333333 5.44 16.21333334 1.81333333 6.72 0 11.41333333-5.22666667 14.93333333-4.8 3.2-11.2 3.30666667-16.10666667-0.53333333-5.12-4.05333333-9.17333333-9.06666667-10.98666666-15.46666667-2.34666667-7.68-0.10666667-13.33333333 7.14666666-18.34666667zM915.2 527.46666667c0.42666667 4.26666667-1.06666667 5.97333333-4.90666667 6.93333333-4.69333333 1.17333333-5.76 5.76-6.4 9.92-0.64 4.26666667-0.32 8.64 3.73333334 11.41333333 3.73333333 2.56 7.89333333 1.49333333 9.70666666-2.66666666 1.92-4.58666667 3.41333333-9.28 4.90666667-13.97333334 2.98666667-9.38666667 9.38666667-13.54666667 17.92-10.66666666 2.77333333 0.96 5.76 3.2 7.14666667 5.65333333 4.26666667 7.68 4.05333333 15.89333333 0.42666666 23.89333333-2.98666667 6.61333333-8.32 9.17333333-16 8.64-1.06666667-3.41333333-0.96-5.86666667 3.62666667-6.50666666 5.01333333-0.64 7.46666667-4.05333333 8.53333333-8.64 1.28-5.44 1.6-10.88-2.45333333-15.36-2.98666667-3.2-8.85333333-2.56-10.88 1.38666666-2.02666667 3.94666667-3.30666667 8.32-4.90666667 12.48-0.64 1.70666667-1.17333333 3.41333333-1.81333333 5.01333334-2.66666667 6.18666667-5.86666667 8.53333333-11.41333333 8.42666666-5.97333333-0.21333333-11.41333333-3.73333333-13.22666667-9.17333333-2.45333333-7.46666667-1.38666667-14.61333333 2.88-21.12 2.88-4.8 7.36-6.61333333 13.12-5.65333333zM140.58666667 625.38666667c-4.90666667 1.70666667-9.38666667 3.2-14.18666667 4.8 2.88 8.85333333 5.54666667 17.06666667 8.32 25.70666666-1.81333333 0.64-3.41333333 1.17333333-5.33333333 1.81333334-2.88-8.64-5.65333333-16.96-8.53333334-25.81333334-5.33333333 1.70666667-10.34666667 3.30666667-15.89333333 5.12 3.09333333 9.49333333 6.08 18.77333333 9.17333333 28.48-1.70666667 0.64-3.30666667 1.17333333-5.54666666 2.02666667-3.84-11.73333333-7.46666667-23.04-11.30666667-34.88 15.89333333-5.12 31.14666667-10.13333333 47.04-15.36 3.73333333 11.52 7.46666667 22.72 11.2 34.24-2.02666667 0.74666667-3.62666667 1.38666667-5.65333333 2.13333333-3.09333333-9.49333333-6.18666667-18.66666667-9.28-28.26666666zM864.74666667 688.96c4.69333333 2.24 8.96 4.16 13.44 6.29333333 3.94666667-8.21333333 7.78666667-16.32 11.73333333-24.64 1.81333333 0.96 3.30666667 1.6 5.01333333 2.45333334-3.84 8.21333333-7.46666667 16.21333333-11.30666666 24.64 5.01333333 2.34666667 9.70666667 4.58666667 15.04 7.04 4.37333333-9.17333333 8.53333333-18.02666667 12.8-27.09333334 1.81333333 0.85333333 3.2 1.49333333 5.22666666 2.45333334-5.12 10.98666667-10.13333333 21.86666667-15.36 33.17333333-15.04-7.04-29.76-13.86666667-44.90666666-20.90666667 5.12-10.98666667 10.02666667-21.54666667 15.25333333-32.64 1.81333333 0.85333333 3.41333333 1.6 5.44 2.56-4.16 8.85333333-8.10666667 17.49333333-12.37333333 26.66666667zM205.76 818.13333333c11.41333333-12.26666667 22.4-24.10666667 33.70666667-36.16 8.85333333 8.21333333 17.49333333 16.32 26.34666666 24.53333334-1.38666667 1.49333333-2.66666667 2.77333333-4.05333333 4.26666666-7.25333333-6.72-14.29333333-13.22666667-21.65333333-20.05333333-3.30666667 3.62666667-6.50666667 7.04-10.13333334 11.09333333 6.72 6.29333333 13.22666667 12.37333333 19.84 18.66666667-1.38666667 1.49333333-2.45333333 2.66666667-3.73333333 4.05333333-6.72-6.18666667-13.22666667-12.26666667-20.16-18.56-3.94666667 4.26666667-7.57333333 8.21333333-11.41333333 12.37333334 7.36 6.93333333 14.50666667 13.54666667 21.44 20.05333333-1.17333333 1.6-2.13333333 2.98666667-3.41333334 4.8-9.17333333-8.64-17.81333333-16.64-26.77333333-25.06666667zM108.69333333 577.06666667c-8 1.49333333-15.25333333 2.88-22.93333333 4.26666666-0.32-2.45333333-0.53333333-4.37333333-0.85333333-6.61333333 16.21333333-3.2 32-6.18666667 48.32-9.38666667 0.42666667 2.34666667 0.85333333 4.26666667 1.28 6.50666667-6.61333333 1.38666667-13.12 2.66666667-19.94666667 4.16 1.6 8.42666667 3.2 16.53333333 4.90666667 24.96 5.22666667-0.96 10.02666667-1.81333333 14.82666666-2.66666667 5.76-1.06666667 5.86666667-1.06666667 5.86666667 5.76-15.89333333 3.09333333-31.78666667 6.18666667-48 9.28-0.42666667-2.45333333-0.74666667-4.26666667-1.06666667-6.61333333 6.18666667-1.17333333 12.16-2.56 18.13333334-3.52 3.41333333-0.53333333 4.48-1.6 3.52-5.33333333-1.70666667-6.61333333-2.66666667-13.44-4.05333334-20.8zM707.52 846.29333333c1.92-1.06666667 3.62666667-1.92 5.76-3.09333333 3.09333333 5.76 6.29333333 11.30666667 9.06666667 17.06666667 2.88 5.76 5.97333333 11.52 7.68 17.70666666 0.96 3.52 0.10666667 8.21333333-1.6 11.52-6.93333333 13.44-25.28 14.29333333-33.17333334 1.6-5.86666667-9.38666667-10.88-19.30666667-16.42666666-29.33333333 2.24-1.17333333 4.05333333-2.13333333 6.18666666-3.30666667 5.01333333 9.49333333 9.81333333 18.66666667 14.72 27.73333334 4.37333333 8 11.41333333 9.92 18.77333334 5.33333333 6.29333333-3.94666667 7.46666667-10.02666667 3.41333333-17.70666667-4.05333333-7.68-8.21333333-15.36-12.26666667-23.04-0.74666667-1.49333333-1.28-2.88-2.13333333-4.48zM470.4 933.54666667c1.81333333 0.10666667 3.41333333 0.21333333 5.01333333 0.32 3.41333333 7.46666667 5.44 9.06666667 10.98666667 8.21333333 5.01333333-0.74666667 8.21333333-5.76 9.70666667-14.72-3.73333333 0.74666667-7.78666667 2.34666667-11.62666667 2.24-9.17333333-0.42666667-14.08-7.46666667-13.22666667-17.81333333 0.74666667-8.42666667 7.78666667-14.61333333 16.10666667-14.08 9.70666667 0.64 15.25333333 6.50666667 16 17.70666666 0.53333333 8.32-0.96 16.53333333-5.12 23.89333334-4.8 8.42666667-16.32 10.66666667-23.68 4.58666666-3.41333333-2.56-4.69333333-5.97333333-4.16-10.34666666z m6.82666667-18.98666667c0 6.29333333 3.30666667 9.81333333 9.49333333 9.92 5.86666667 0.10666667 9.70666667-4.16 9.81333333-10.98666667 0.10666667-6.29333333-3.41333333-10.24-9.28-10.24-5.97333333 0-10.02666667 4.48-10.02666666 11.30666667zM169.6 682.66666667c-12.48 12.48-24.64 24.74666667-36.90666667 36.90666666-3.84-5.44-3.84-5.44 0.85333334-10.02666666 7.14666667-6.82666667 7.14666667-6.82666667 2.98666666-15.78666667-4.05333333-8.85333333-4.05333333-8.85333333-14.08-7.89333333-5.97333333 0.53333333-5.97333333 0.53333333-8.21333333-5.76 6.93333333-0.64 13.65333333-1.28 20.48-1.81333334 8.42666667-0.64 16.74666667-1.38666667 25.17333333-1.92 6.93333333-0.42666667 6.93333333-0.32 9.70666667 6.29333334z m-24.96 15.14666666c5.01333333-5.44 9.70666667-10.56 14.08-15.25333333-5.97333333 0.53333333-12.90666667 1.17333333-20.37333333 1.92 2.24 4.8 4.26666667 9.06666667 6.29333333 13.33333333zM744.32 237.33333333c4.69333333-4.16 9.06666667-8.10666667 13.54666667-12.05333333-0.10666667-0.53333333-0.32-1.17333333-0.42666667-1.70666667-2.02666667-0.21333333-4.05333333-0.53333333-6.08-0.42666666-4.8 0.21333333-9.38666667-4.8-8.21333333-9.38666667 2.88 1.17333333 5.65333333 2.45333333 8.42666666 3.52 2.77333333 0.96 5.65333333 1.70666667 9.17333334 2.77333333 1.49333333-2.45333333 3.09333333-5.12 4.90666666-8.32-3.84-0.42666667-6.61333333-0.85333333-9.38666666-1.17333333-0.10666667-0.32-0.21333333-0.53333333-0.42666667-0.85333333 1.70666667-0.96 3.30666667-1.92 5.01333333-2.88-1.06666667-1.92-2.34666667-3.84-3.09333333-5.97333334-0.32-0.85333333 0.42666667-2.34666667 1.17333333-2.98666666 0.53333333-0.53333333 2.13333333-0.42666667 2.88-0.10666667 3.84 1.92 7.68 3.84 11.30666667 6.08 1.70666667 1.06666667 3.09333333 2.66666667 4.16 4.37333333 0.42666667 0.64-0.10666667 2.34666667-0.74666667 3.2-0.32 0.42666667-1.81333333-0.10666667-2.77333333-0.32-1.28-0.21333333-2.45333333-0.64-3.94666667-1.06666666 2.66666667 6.29333333 2.66666667 6.29333333-3.94666666 11.84 2.02666667 0.64 3.62666667 1.17333333 5.22666666 1.6 6.18666667 1.92 11.2 8.85333333 10.66666667 15.14666666-0.10666667 1.28-1.17333333 3.09333333-2.24 3.41333334-0.85333333 0.32-2.88-0.96-3.41333333-2.02666667-1.06666667-2.34666667-1.6-5.01333333-1.92-7.57333333-0.74666667-5.22666667-5.44-5.01333333-8.85333334-6.08-1.38666667-0.42666667-3.73333333 1.6-5.22666666 2.88-4.58666667 4.16-8.85333333 8.74666667-13.54666667 12.90666666-1.28 1.17333333-4.26666667 2.02666667-5.44 1.28-1.49333333-0.85333333-2.34666667-3.41333333-2.98666667-5.44-0.74666667-2.34666667-0.85333333-4.8-1.28-7.78666666 2.13333333 2.34666667 4.48 4.48 7.46666667 7.14666666zM574.61333333 910.18666667c-0.96-5.76-0.21333333-10.88 4.69333334-14.50666667 5.44-4.05333333 11.62666667-5.44 18.24-2.77333333 7.36 2.98666667 9.06666667 12.16 3.62666666 19.62666666 8 3.73333333 10.77333333 9.06666667 8.96 17.28-1.49333333 6.61333333-9.38666667 11.62666667-18.45333333 11.52-8.10666667 0-12.48-3.84-14.29333333-12.69333333 3.41333333-1.70666667 5.76-2.02666667 7.46666666 2.56 2.02666667 5.12 9.17333333 6.08 14.82666667 2.66666667 4.58666667-2.77333333 6.18666667-9.28 2.66666667-13.33333334-1.49333333-1.70666667-4.26666667-2.56-6.61333334-2.98666666-2.24-0.42666667-4.69333333 0.21333333-7.36 0.32-0.21333333-1.49333333-0.42666667-2.77333333-0.74666666-4.37333334 1.92-0.53333333 3.62666667-0.85333333 5.22666666-1.38666666 3.62666667-1.28 5.76-3.73333333 5.33333334-7.78666667-0.42666667-4.37333333-2.98666667-6.61333333-7.46666667-6.82666667-6.18666667-0.21333333-10.34666667 2.88-10.34666667 8.64 0.10666667 4.58666667-2.34666667 4.26666667-5.76 4.05333334zM529.92 915.62666667c-1.92 0.21333333-3.73333333 0.42666667-5.76 0.74666666-0.42666667-6.29333333 0.42666667-11.84 5.76-15.57333333 5.76-3.94666667 12.37333333-4.48 18.45333333-1.38666667 5.44 2.66666667 8.53333333 7.89333333 7.46666667 14.18666667-0.53333333 3.09333333-2.34666667 6.61333333-4.58666667 8.74666667-4.16 3.84-9.28 6.61333333-13.65333333 10.24-2.45333333 2.02666667-4.26666667 4.69333333-6.4 7.04 0.32 0.42666667 0.53333333 0.96 0.85333333 1.38666666 8.42666667-0.53333333 16.85333333-1.06666667 25.6-1.70666666 0.10666667 1.92 0.21333333 3.62666667 0.32 5.65333333-10.88 0.74666667-21.33333333 1.49333333-31.68 2.24-2.13333333-6.82666667 0.64-13.86666667 7.14666667-18.66666667 3.84-2.88 8-5.22666667 11.84-8.21333333 5.76-4.58666667 5.54666667-12.58666667-0.32-15.78666667-5.01333333-2.77333333-13.12-0.96-14.18666667 6.4-0.42666667 1.38666667-0.64 2.77333333-0.85333333 4.69333334zM818.24 752.53333333c3.41333333-6.4 3.41333333-6.4 9.49333333-4.58666666 11.73333333 3.52 23.57333333 7.04 36.69333334 10.88-1.6-2.34666667-2.34666667-3.62666667-3.30666667-4.8-6.61333333-8.96-13.01333333-18.13333333-19.94666667-26.77333334-3.41333333-4.16-1.81333333-6.50666667 1.6-9.6 2.02666667 2.77333333 4.05333333 5.33333333 5.86666667 8 7.46666667 10.56 14.72 21.22666667 22.29333333 31.78666667 1.38666667 2.02666667 1.70666667 3.41333333 0.10666667 5.54666667-1.49333333 2.02666667-2.77333333 3.2-5.44 2.45333333-15.78666667-4.37333333-31.46666667-8.53333333-47.36-12.90666667zM884.05333333 396.58666667c-3.30666667-4.48-2.77333333-8 0.74666667-11.84 4.58666667-5.01333333 8.53333333-10.77333333 13.22666667-16.74666667-7.57333333-1.38666667-14.29333333-2.88-21.22666667-3.62666667-4.90666667-0.53333333-7.89333333-2.34666667-8.10666667-8.10666666 2.88 0.53333333 5.76 0.96 8.53333334 1.49333333 6.93333333 1.38666667 13.76 2.98666667 20.8 4.05333333 2.88 0.42666667 6.18666667-0.10666667 9.06666666-0.85333333 4.58666667-1.38666667 8.96-3.30666667 13.76-5.22666667 0.85333333 2.13333333 1.6 3.94666667 2.45333334 6.08-4.26666667 1.70666667-8.21333333 3.62666667-12.37333334 4.8-4.69333333 1.28-7.78666667 4.16-10.45333333 7.89333334-5.22666667 7.36-10.77333333 14.50666667-16.42666667 22.08zM895.57333333 418.56c1.28 5.76 2.34666667 10.98666667 3.62666667 16.53333333 14.29333333-2.77333333 28.16-5.44 42.45333333-8.21333333 0.53333333 2.13333333 0.96 4.05333333 1.6 6.61333333-10.13333333 2.02666667-19.73333333 3.84-29.44 5.76-0.85333333 0.21333333-1.81333333 0.32-2.66666666 0.53333334-10.88 2.34666667-10.88 2.34666667-8.53333334 13.44 0.32 1.49333333 0.42666667 2.98666667 0.74666667 4.8-1.6 0.42666667-3.2 0.96-5.44 1.6-2.56-13.22666667-5.12-26.13333333-7.68-39.36 1.6-0.64 3.09333333-1.06666667 5.33333333-1.70666667zM123.94666667 517.01333333c4.69333333-1.49333333 6.08 0 6.29333333 4.05333334 0.42666667 10.34666667 1.06666667 20.69333333 2.02666667 31.04 0.32 4.05333333-1.28 5.12-5.44 4.37333333-0.42666667-5.12-0.96-10.24-1.38666667-16.21333333-14.50666667 0.96-28.8 1.92-43.41333333 2.88v-6.72c8-0.64 15.89333333-1.28 23.89333333-1.81333334 5.22666667-0.42666667 10.45333333-0.74666667 15.68-0.96 2.88-0.10666667 3.52-1.38666667 3.30666667-3.94666666-0.53333333-4.26666667-0.64-8.42666667-0.96-12.69333334zM213.12 760.53333333c-3.52-4.37333333-6.93333333-8.42666667-10.45333333-12.8 1.38666667-1.17333333 2.66666667-2.34666667 4.26666666-3.84 8.53333333 10.13333333 16.96 20.16 25.70666667 30.61333334-1.38666667 1.28-2.66666667 2.45333333-4.16 3.84-3.73333333-4.26666667-7.14666667-8.32-10.98666667-12.58666667-11.2 9.38666667-22.18666667 18.56-33.38666666 27.84-1.38666667-1.70666667-2.66666667-3.09333333-4.26666667-5.12 11.09333333-9.28 22.08-18.45333333 33.28-27.94666667zM614.50666667 126.61333333c-4.48-4.16-10.88-5.97333333-8.64-12.05333333 5.76-0.74666667 10.77333333-1.6 15.89333333-1.92 3.41333333-0.21333333 3.2-2.02666667 3.30666667-4.48 0.10666667-1.92 0.96-5.01333333 2.02666666-5.33333333 2.98666667-0.74666667 5.01333333 1.49333333 5.76 4.37333333 0.32 1.17333333 0.32 2.45333333 0.10666667 3.52-0.64 3.52-1.38666667 7.04-2.02666667 9.92-2.88 2.13333333-5.97333333 4.05333333-8.42666666 6.4-4.58666667 4.37333333-9.17333333 8.96-15.57333334 10.24-4.69333333 0.96-9.49333333 1.06666667-14.18666666 1.49333333-0.10666667-0.42666667-0.10666667-0.85333333-0.21333334-1.17333333l21.97333334-10.98666667zM404.48 111.78666667c3.94666667-2.98666667 7.57333333-2.77333333 10.34666667-0.74666667 2.13333333 1.49333333 3.94666667 4.37333333 4.58666666 6.93333333 1.06666667 3.94666667 0.85333333 8.32 1.6 12.37333334 0.21333333 1.06666667 1.49333333 2.24 2.56 2.66666666 3.52 1.38666667 4.05333333 2.77333333 1.6 5.86666667-2.66666667 3.41333333-5.33333333 6.82666667-8.21333333 10.02666667s-8.96 2.98666667-12.8-0.42666667c1.28-1.06666667 2.45333333-2.02666667 3.62666667-3.09333333 2.02666667-1.81333333 4.26666667-3.41333333 5.86666666-5.54666667 1.70666667-2.13333333 1.49333333-4.05333333-1.92-4.69333333-1.6-0.32-2.88-2.02666667-4.37333333-3.09333334 1.06666667-1.06666667 2.02666667-2.34666667 3.30666667-3.09333333 4.05333333-2.56 3.52-9.17333333-1.06666667-12.69333333-1.81333333-1.28-3.2-2.77333333-5.12-4.48zM435.41333333 939.62666667c-2.34666667-0.42666667-4.05333333-0.64-6.29333333-1.06666667 2.13333333-11.2 4.26666667-22.18666667 6.4-33.38666667-3.73333333-0.85333333-7.25333333-1.70666667-10.56-2.45333333-0.42666667-3.30666667 0.74666667-4.48 3.94666667-4.26666667 5.12 0.42666667 9.17333333-1.28 10.98666666-6.82666666 1.6 0.32 2.98666667 0.53333333 4.8 0.96-3.2 15.78666667-6.18666667 31.25333333-9.28 47.04zM948.90666667 483.2c0.32 2.13333333 0.53333333 4.05333333 0.85333333 6.72-16.42666667 1.17333333-32.64 2.34666667-49.17333333 3.52-0.32-2.24-0.74666667-4.26666667-1.06666667-6.72 16.53333333-1.17333333 32.74666667-2.34666667 49.38666667-3.52zM794.45333333 778.34666667c1.6-1.70666667 2.98666667-3.09333333 4.58666667-4.8 8.42666667 7.78666667 16.64 15.46666667 24.85333333 23.04 2.45333333 2.24 4.8 4.58666667 7.25333334 6.82666666 4.48 4.16 4.48 4.16-0.74666667 8.42666667-11.94666667-11.09333333-23.78666667-22.08-35.94666667-33.49333333zM447.57333333 99.94666667c-1.17333333 13.12-0.64 24.32 1.49333334 35.41333333 0.21333333 1.17333333-0.96 2.56-1.38666667 3.84-1.06666667-0.85333333-2.88-1.6-3.09333333-2.66666667-1.28-6.08-2.13333333-12.26666667-3.09333334-18.34666666-1.17333333-7.25333333-2.34666667-14.4-3.41333333-21.65333334-0.10666667-1.06666667 0-2.77333333 0.64-3.2 0.96-0.53333333 3.09333333-0.74666667 3.62666667-0.21333333 2.24 2.56 4.16 5.44 5.22666666 6.82666667zM462.08 125.76c4.69333333 1.06666667 10.34666667 1.6 15.25333333 3.62666667 2.66666667 1.17333333 4.69333333 4.8 6.08 7.78666666 1.06666667 2.34666667-1.06666667 3.73333333-3.41333333 2.56-2.24-1.17333333-4.26666667-2.77333333-6.08-4.48-5.01333333-4.69333333-8.21333333-5.01333333-14.61333333-2.45333333-1.92 0.74666667-4.69333333-0.21333333-6.82666667-1.06666667-0.96-0.42666667-1.28-2.45333333-1.81333333-3.73333333 1.17333333-0.42666667 2.34666667-0.96 3.62666666-1.17333333 2.24-0.42666667 4.58666667-0.64 7.78666667-1.06666667zM622.72 129.06666667c2.24 0.64 5.01333333 0.64 6.72 1.92 5.97333333 4.48 10.66666667 10.02666667 12.26666667 17.49333333 0.10666667 0.42666667 0.32 0.96 0.21333333 1.28-0.96 2.77333333-2.02666667 5.54666667-2.98666667 8.21333333-1.06666667-2.45333333-2.77333333-4.8-2.98666666-7.25333333-0.64-7.57333333-6.08-12.05333333-10.66666667-16.96-1.06666667-1.06666667-2.88-1.38666667-4.37333333-2.13333333 0.53333333-0.74666667 1.17333333-1.70666667 1.81333333-2.56zM468.58666667 106.66666667c-2.24 0.96-4.16 1.49333333-5.65333334 2.45333333-4.16 2.98666667-7.89333333 1.49333333-11.73333333-0.64-2.88-1.6-1.81333333-4.37333333 0.21333333-4.58666667 5.22666667-0.42666667 10.45333333 0.32 15.68 0.74666667 0.53333333 0.10666667 0.85333333 1.17333333 1.49333334 2.02666667zM735.57333333 188.16c4.90666667-4.48 9.38666667-8.42666667 14.18666667-12.8 0.42666667 9.06666667-6.08 15.46666667-14.18666667 12.8zM821.44 572.37333333C764.8 487.25333333 708.69333333 402.88 652.58666667 318.82666667c-22.18666667 21.76-44.16 43.30666667-66.34666667 65.17333333-21.65333333-36.48-43.41333333-72.96-65.49333333-110.18666667-22.18666667 37.33333333-43.84 73.6-65.28 109.76-22.18666667-21.76-44.05333333-43.30666667-66.34666667-65.17333333-60.58666667 86.08-121.06666667 172.16-181.54666667 258.34666667-23.89333333-113.38666667 19.52-240.53333333 125.54666667-316.26666667 112.74666667-80.64 263.25333333-75.41333333 368.96 4.90666667 106.77333333 81.17333333 139.30666667 207.25333333 119.36 306.98666666zM316.37333333 755.52c9.92-3.84 19.62666667-7.89333333 29.65333334-11.30666667 28.26666667-9.6 57.38666667-12.48 87.14666666-10.77333333 17.49333333 1.06666667 34.34666667 5.97333333 50.56 12.16 17.38666667 6.50666667 34.24 14.29333333 51.41333334 21.54666667 2.13333333 0.96 4.37333333 1.81333333 7.57333333 3.2-2.77333333-9.81333333-5.12-18.56-7.78666667-27.30666667-0.42666667-1.17333333-2.34666667-2.13333333-3.73333333-2.77333333-21.65333333-10.98666667-44.26666667-19.41333333-68.05333333-24.53333334-37.65333333-8.10666667-75.2-8.32-112.42666667 2.45333334-9.17333333 2.66666667-18.34666667 5.76-27.2 9.38666666-8.85333333 3.62666667-17.38666667 8.10666667-26.88 12.69333334-7.57333333-8.21333333-15.57333333-16.85333333-24.21333333-26.13333334 5.76-3.52 10.88-6.93333333 16.21333333-9.70666666 30.82666667-16.21333333 63.46666667-26.02666667 98.24-28.26666667 20.8-1.38666667 41.70666667-1.49333333 61.86666667 4.16 20.58666667 5.86666667 40.53333333 13.97333333 60.69333333 21.22666667 5.01333333 1.81333333 9.92 4.16 15.68 6.72-1.28-4.90666667-2.45333333-9.06666667-3.52-13.22666667-0.96-3.52-2.34666667-6.82666667-2.88-10.34666667-0.74666667-5.01333333-3.62666667-7.25333333-8.10666667-8.85333333-19.84-7.46666667-39.89333333-14.08-60.8-18.13333333-26.88-5.12-53.86666667-6.18666667-81.17333333-2.66666667-39.68 5.12-75.52 19.73333333-109.86666667 40.96-5.86666667-9.28-11.84-18.56-18.13333333-28.37333333 2.02666667-1.49333333 3.73333333-2.77333333 5.54666667-3.94666667 26.88-16.85333333 55.68-29.44 86.72-36.37333333 15.04-3.30666667 30.4-5.12 45.76-6.82666667 21.33333333-2.45333333 42.77333333-1.38666667 63.68 2.88 15.46666667 3.2 30.72 8.42666667 45.54666666 14.08 20.69333333 7.89333333 40.85333333 17.38666667 61.44 25.6 19.2 7.78666667 39.04 13.54666667 59.52 17.06666667 23.36 4.05333333 46.82666667 6.08 70.50666667 5.33333333 32.21333333-1.06666667 63.89333333-6.18666667 94.72-15.89333333 4.48-1.38666667 9.06666667-2.66666667 14.4-3.2-4.90666667 7.89333333-9.81333333 15.89333333-14.72 23.78666666-0.42666667 0.74666667-1.28 1.38666667-1.6 2.13333334-5.76 13.12-17.38666667 16.10666667-29.97333333 18.66666666-25.28 5.22666667-50.66666667 8.21333333-76.48 7.68-39.46666667-0.96-77.54666667-8.74666667-113.70666667-24.85333333-2.02666667-0.85333333-4.05333333-1.6-7.04-2.77333333 2.77333333 9.70666667 5.01333333 18.56 7.89333333 27.2 0.53333333 1.6 3.30666667 2.98666667 5.33333334 3.62666666 13.33333333 4.05333333 26.56 8.21333333 40.10666666 11.52 22.08 5.33333333 44.8 7.57333333 67.41333334 7.68 23.78666667 0.21333333 47.46666667-1.49333333 71.25333333-5.97333333-5.54666667 5.33333333-10.88 10.77333333-16.64 15.78666667-5.97333333 5.22666667-12.26666667 10.13333333-18.77333333 14.72-2.66666667 1.81333333-6.18666667 3.2-9.38666667 3.41333333-20.48 1.49333333-40.85333333 0.42666667-61.22666667-1.38666667-22.82666667-2.02666667-45.22666667-6.29333333-67.30666666-13.54666666 0 1.17333333-0.21333333 2.24 0 3.09333333 1.81333333 6.50666667 3.52 13.01333333 5.65333333 19.41333333 0.53333333 1.6 2.45333333 3.62666667 3.94666667 3.94666667 16.32 3.09333333 32.64 6.4 49.17333333 8.74666667 11.84 1.70666667 23.78666667 2.13333333 36.90666667 3.2-59.84 31.04-122.02666667 41.70666667-187.09333334 33.06666666-58.34666667-7.78666667-110.4-30.72-155.84-68.16v-1.81333333z" fill="#2c2c2c" p-id="8718">
	</path>
	<path d="M815.68 599.14666667c-2.66666667 8.21333333-5.12 16.32-8 24.32-5.12 14.18666667-5.22666667 14.08-19.52 19.2-36.37333333 12.90666667-73.70666667 20.58666667-112.42666667 21.22666666-26.66666667 0.42666667-53.22666667-1.70666667-79.25333333-8-21.22666667-5.12-41.28-13.54666667-60.90666667-22.93333333-26.98666667-12.90666667-54.82666667-23.89333333-84.26666666-29.76-25.06666667-5.01333333-50.34666667-7.04-75.84-5.33333333-23.14666667 1.49333333-46.08 5.22666667-67.94666667 12.90666666-18.24 6.4-35.73333333 14.61333333-53.33333333 22.72-8.10666667 3.73333333-15.57333333 8.85333333-24 13.76-3.30666667-8.10666667-6.82666667-16.64-10.13333334-25.17333333-0.32-0.85333333 0.85333333-2.66666667 1.92-3.41333333 15.78666667-11.30666667 32.64-20.90666667 50.24-29.01333334 25.28-11.62666667 51.84-18.88 79.25333334-22.29333333 19.73333333-2.45333333 39.57333333-2.56 59.41333333-0.64 21.76 2.13333333 42.98666667 6.4 64 12.48 20.69333333 5.97333333 40.21333333 14.72 59.62666667 23.89333333 24.96 11.73333333 50.56 21.54666667 78.29333333 24.64 17.28 1.92 34.77333333 3.73333333 52.16 3.94666667 34.02666667 0.42666667 67.30666667-4.58666667 99.84-14.82666667 16.74666667-5.44 33.28-11.62666667 50.88-17.70666666z" fill="#2c2c2c" p-id="8719">
	</path>
</svg>
